<svg width="25" height="25" viewBox="0 0 25 25" fill="none" xmlns="http://www.w3.org/2000/svg">
<path d="M12.9935 21.4124L15.3697 8.04864C17.6346 8.04864 18.349 8.297 18.4522 9.31074C18.4522 9.31074 19.9715 8.74423 20.7379 7.59365C17.7475 6.20797 14.7428 6.14548 14.7428 6.14548L12.9896 8.28093L12.9935 8.28066L11.2402 6.14514C11.2402 6.14514 8.23553 6.2077 5.24554 7.59338C6.01119 8.74396 7.53117 9.31048 7.53117 9.31048C7.63492 8.29667 8.34845 8.04831 10.5982 8.0467L12.9935 21.4124Z" fill="#2C2C2C"/>
<path d="M12.9925 5.52869C15.4098 5.5102 18.1767 5.90264 21.0091 7.13714C21.3877 6.45576 21.485 6.15462 21.485 6.15462C18.3887 4.92962 15.4891 4.51039 12.9922 4.49988C10.4954 4.51039 7.59588 4.92969 4.5 6.15462C4.5 6.15462 4.63811 6.52555 4.97556 7.13714C7.80747 5.90264 10.5748 5.5102 12.9922 5.52869H12.9925Z" fill="#2C2C2C"/>
</svg>
