<svg width="25" height="24" viewBox="0 0 25 24" fill="none" xmlns="http://www.w3.org/2000/svg">
<path d="M12.9935 20.9124L15.3697 7.54867C17.6346 7.54867 18.349 7.79703 18.4522 8.81077C18.4522 8.81077 19.9715 8.24426 20.7379 7.09368C17.7475 5.708 14.7428 5.64551 14.7428 5.64551L12.9896 7.78096L12.9935 7.78069L11.2402 5.64517C11.2402 5.64517 8.23553 5.70773 5.24554 7.09341C6.01119 8.24399 7.53117 8.81051 7.53117 8.81051C7.63492 7.7967 8.34845 7.54834 10.5982 7.54673L12.9935 20.9124Z" fill="#E82127"/>
<path d="M12.9925 5.02869C15.4098 5.0102 18.1767 5.40264 21.0091 6.63714C21.3877 5.95576 21.485 5.65462 21.485 5.65462C18.3887 4.42962 15.4891 4.01039 12.9922 3.99988C10.4954 4.01039 7.59588 4.42969 4.5 5.65462C4.5 5.65462 4.63811 6.02555 4.97556 6.63714C7.80747 5.40264 10.5748 5.0102 12.9922 5.02869H12.9925Z" fill="#E82127"/>
</svg>
