<svg width="108" height="48" viewBox="0 0 108 48" fill="none" xmlns="http://www.w3.org/2000/svg">
<path d="M2.86667 25.046L3.41135 24.2073H3.41135L2.86667 25.046ZM96.4667 41.9711C96.4667 44.9167 98.8545 47.3045 101.8 47.3045C104.746 47.3045 107.133 44.9167 107.133 41.9711C107.133 39.0256 104.746 36.6378 101.8 36.6378C98.8545 36.6378 96.4667 39.0256 96.4667 41.9711ZM0.455318 24.6723L2.32198 25.8846L3.41135 24.2073L1.54468 22.995L0.455318 24.6723ZM2.32198 25.8846C3.25269 26.4891 4.72082 27.4448 6.44658 28.1686C8.16792 28.8905 10.2325 29.4199 12.354 29.0893L12.046 27.1132C10.4342 27.3644 8.76542 26.9723 7.22009 26.3242C5.67918 25.678 4.34731 24.8152 3.41135 24.2073L2.32198 25.8846ZM12.354 29.0893C14.4536 28.7621 16.4762 27.6079 18.3597 26.3358C19.3095 25.6943 20.2614 24.9959 21.1847 24.3303C22.1166 23.6586 23.0265 23.0151 23.929 22.4525L22.871 20.7553C21.9068 21.3563 20.95 22.0341 20.0153 22.7079C19.072 23.3878 18.1571 24.0592 17.2403 24.6784C15.3905 25.9278 13.6798 26.8586 12.046 27.1132L12.354 29.0893ZM23.929 22.4525C27.4569 20.2534 31.5113 19.0117 35.391 13.9954L33.809 12.7719C30.222 17.4097 26.8098 18.3 22.871 20.7553L23.929 22.4525ZM35.391 13.9954C36.356 12.7478 37.3123 11.2689 38.2427 9.81269C39.1833 8.34051 40.0974 6.89168 41.0086 5.63951C41.9279 4.37622 42.7851 3.39796 43.5844 2.82225C44.3652 2.25993 44.9349 2.18253 45.4312 2.37944L46.1688 0.520448C44.7984 -0.02335 43.5015 0.417236 42.4156 1.19937C41.3482 1.96813 40.3388 3.16081 39.3914 4.46274C38.4359 5.77579 37.4834 7.28646 36.5573 8.73586C35.6211 10.2012 34.7107 11.606 33.809 12.7719L35.391 13.9954ZM45.4312 2.37944C46.0611 2.62939 46.8499 3.39719 47.7733 4.75392C48.6671 6.06701 49.5758 7.75953 50.5065 9.61104C52.3318 13.2417 54.2609 17.544 56.1919 20.1934L57.8081 19.0153C56.0058 16.5426 54.2016 12.5083 52.2935 8.71273C51.3576 6.85108 50.3996 5.05799 49.4267 3.62857C48.4835 2.24279 47.4056 1.0112 46.1688 0.520448L45.4312 2.37944ZM56.1919 20.1934C58.2072 22.9583 60.2576 24.0046 62.2176 24.8157C64.152 25.6162 65.8022 26.1353 67.4989 27.8037L68.9011 26.3776C66.8645 24.375 64.7813 23.7121 62.9824 22.9677C61.2091 22.2339 59.5262 21.3725 57.8081 19.0153L56.1919 20.1934ZM67.4989 27.8037C69.2607 29.536 71.0517 32.4826 72.9547 35.4934C73.888 36.9699 74.8404 38.4457 75.8006 39.7234C76.7535 40.9913 77.7604 42.1282 78.82 42.8826L79.98 41.2534C79.1729 40.6787 78.3132 39.7377 77.3994 38.5218C76.4929 37.3156 75.5787 35.9014 74.6453 34.4248C72.815 31.5291 70.8726 28.3161 68.9011 26.3776L67.4989 27.8037ZM78.82 42.8826C81.0415 44.4643 83.27 44.2218 85.2064 43.8132C86.2231 43.5988 87.0496 43.368 87.9592 43.2213C88.8267 43.0814 89.6178 43.0504 90.3766 43.2243L90.8234 41.2748C89.7156 41.021 88.6399 41.0857 87.6408 41.2468C86.6837 41.4012 85.6436 41.677 84.7936 41.8563C82.9967 42.2354 81.4918 42.3298 79.98 41.2534L78.82 42.8826ZM90.3766 43.2243C91.1622 43.4043 91.9845 43.8152 92.9303 44.3184C93.8286 44.7964 94.8559 45.3683 95.896 45.7002C96.9668 46.0419 98.1571 46.167 99.3792 45.6662C100.583 45.1729 101.66 44.1363 102.656 42.4884L100.944 41.4539C100.074 42.8944 99.2838 43.5439 98.6208 43.8155C97.9762 44.0797 97.2998 44.0488 96.504 43.7948C95.6775 43.5311 94.8381 43.068 93.8697 42.5528C92.9488 42.0628 91.9045 41.5226 90.8234 41.2748L90.3766 43.2243Z" fill="#FF0000"/>
</svg>
