<svg width="119" height="51" viewBox="0 0 119 51" fill="none" xmlns="http://www.w3.org/2000/svg">
<path d="M2.86667 30.046L2.32198 30.8846L2.86667 30.046ZM111.133 14.6985L110.156 14.4887V14.4887L111.133 14.6985ZM107.667 6C107.667 8.94552 110.054 11.3333 113 11.3333C115.946 11.3333 118.333 8.94552 118.333 6C118.333 3.05448 115.946 0.666667 113 0.666667C110.054 0.666667 107.667 3.05448 107.667 6ZM0.455318 29.6723L2.32198 30.8846L3.41135 29.2073L1.54468 27.995L0.455318 29.6723ZM2.32198 30.8846C3.25269 31.4891 4.72082 32.4449 6.44658 33.1686C8.16792 33.8905 10.2325 34.4199 12.354 34.0893L12.046 32.1132C10.4342 32.3644 8.76542 31.9723 7.22009 31.3242C5.67918 30.678 4.34731 29.8152 3.41135 29.2073L2.32198 30.8846ZM12.354 34.0893C14.4536 33.7621 16.4762 32.6079 18.3597 31.3358C19.3095 30.6943 20.2614 29.9959 21.1847 29.3303C22.1166 28.6586 23.0265 28.0151 23.929 27.4525L22.871 25.7553C21.9068 26.3563 20.95 27.0341 20.0153 27.7079C19.072 28.3878 18.1571 29.0592 17.2403 29.6784C15.3905 30.9278 13.6798 31.8586 12.046 32.1132L12.354 34.0893ZM23.929 27.4525C27.4569 25.2534 31.5113 24.0117 35.391 18.9954L33.809 17.7719C30.222 22.4097 26.8098 23.3 22.871 25.7553L23.929 27.4525ZM35.391 18.9954C36.356 17.7478 37.3123 16.2689 38.2427 14.8127C39.1833 13.3405 40.0974 11.8917 41.0086 10.6395C41.9279 9.37622 42.7851 8.39796 43.5844 7.82225C44.3652 7.25993 44.9349 7.18253 45.4312 7.37944L46.1688 5.52045C44.7984 4.97665 43.5015 5.41724 42.4156 6.19937C41.3482 6.96813 40.3388 8.16081 39.3914 9.46274C38.4359 10.7758 37.4834 12.2865 36.5573 13.7359C35.6211 15.2012 34.7107 16.606 33.809 17.7719L35.391 18.9954ZM45.4312 7.37944C46.0611 7.62939 46.8499 8.39719 47.7733 9.75392C48.6671 11.067 49.5758 12.7595 50.5065 14.611C52.3318 18.2417 54.2609 22.544 56.1919 25.1934L57.8081 24.0153C56.0058 21.5426 54.2016 17.5083 52.2935 13.7127C51.3576 11.8511 50.3996 10.058 49.4267 8.62857C48.4835 7.24279 47.4056 6.0112 46.1688 5.52045L45.4312 7.37944ZM56.1919 25.1934C58.2072 27.9583 60.2576 29.0046 62.2176 29.8157C64.152 30.6162 65.8022 31.1353 67.4989 32.8036L68.9011 31.3776C66.8645 29.375 64.7813 28.7121 62.9824 27.9677C61.2091 27.2339 59.5262 26.3725 57.8081 24.0153L56.1919 25.1934ZM67.4989 32.8036C69.2607 34.536 71.0517 37.4826 72.9547 40.4934C73.888 41.9699 74.8404 43.4457 75.8006 44.7234C76.7535 45.9913 77.7604 47.1282 78.82 47.8826L79.98 46.2534C79.1729 45.6787 78.3132 44.7377 77.3994 43.5218C76.4929 42.3156 75.5787 40.9014 74.6453 39.4248C72.815 36.5291 70.8726 33.3161 68.9011 31.3776L67.4989 32.8036ZM78.82 47.8826C81.0415 49.4643 83.27 49.2218 85.2064 48.8132C86.2231 48.5988 87.0496 48.368 87.9592 48.2213C88.8267 48.0814 89.6178 48.0504 90.3766 48.2243L90.8234 46.2748C89.7156 46.021 88.6399 46.0857 87.6408 46.2468C86.6837 46.4012 85.6436 46.677 84.7936 46.8563C82.9967 47.2354 81.4918 47.3298 79.98 46.2534L78.82 47.8826ZM90.3766 48.2243C91.1622 48.4043 91.9845 48.8152 92.9303 49.3184C93.8286 49.7964 94.8559 50.3683 95.896 50.7002C96.9668 51.0419 98.1571 51.167 99.3792 50.6662C100.583 50.1729 101.66 49.1363 102.656 47.4884L100.944 46.4539C100.074 47.8944 99.2838 48.5439 98.6208 48.8156C97.9762 49.0797 97.2998 49.0488 96.504 48.7949C95.6775 48.5311 94.8381 48.068 93.8697 47.5528C92.9488 47.0628 91.9045 46.5226 90.8234 46.2748L90.3766 48.2243ZM102.656 47.4884C104.609 44.257 106.506 38.2229 108.134 32.0348C109.774 25.8007 111.178 19.2552 112.111 14.9084L110.156 14.4887C109.222 18.8404 107.826 25.3427 106.2 31.526C104.561 37.7554 102.724 43.5083 100.944 46.4539L102.656 47.4884ZM112.111 14.9084L113.978 6.20982L112.022 5.79018L110.156 14.4887L112.111 14.9084Z" fill="#FF0000"/>
</svg>
