<svg width="119" height="46" viewBox="0 0 119 46" fill="none" xmlns="http://www.w3.org/2000/svg">
<path d="M110.667 13.7033L111.3 14.4775L110.667 13.7033ZM107.667 11.7954C107.667 8.84992 110.054 6.4621 113 6.4621C115.946 6.4621 118.333 8.84992 118.333 11.7954C118.333 14.741 115.946 17.1288 113 17.1288C110.054 17.1288 107.667 14.741 107.667 11.7954ZM0.0511889 44.6842L2.38452 37.6747L4.28214 38.3064L1.94881 45.3158L0.0511889 44.6842ZM2.38452 37.6747C3.54826 34.1788 5.3145 28.8698 7.38248 24.3542C8.41507 22.0995 9.54334 19.9962 10.7357 18.4024C11.8891 16.8608 13.2709 15.5644 14.8687 15.3528L15.1313 17.3355C14.3958 17.4329 13.4442 18.1207 12.3372 19.6005C11.2692 21.0281 10.2099 22.9836 9.20086 25.187C7.1855 29.5877 5.45174 34.7929 4.28214 38.3064L2.38452 37.6747ZM14.8687 15.3528C16.5232 15.1337 17.992 16.1176 19.2034 17.3163C20.4483 18.5482 21.6636 20.25 22.8293 21.9797C24.0181 23.7438 25.1544 25.5345 26.3037 27.0866C27.4635 28.6529 28.5289 29.8211 29.5078 30.398L28.4922 32.121C27.1377 31.3226 25.8698 29.8614 24.6963 28.2768C23.5123 26.6778 22.3152 24.7956 21.1707 23.0975C20.0031 21.3649 18.8851 19.815 17.7966 18.738C16.6747 17.6278 15.8101 17.2456 15.1313 17.3355L14.8687 15.3528ZM29.5078 30.398C30.406 30.9274 31.2705 30.9755 32.1866 30.6732C33.1515 30.3548 34.1921 29.6376 35.3157 28.5832C37.5852 26.4533 39.8278 23.3221 42.226 20.3904L43.774 21.6567C41.5055 24.4299 39.0815 27.792 36.6843 30.0415C35.4746 31.1768 34.1819 32.1208 32.8134 32.5724C31.3962 33.0401 29.9274 32.9669 28.4922 32.121L29.5078 30.398ZM42.226 20.3904C46.9509 14.6142 51.674 10.4385 56.3447 6.38648L57.6553 7.8972C52.9927 11.9422 48.3824 16.023 43.774 21.6567L42.226 20.3904ZM56.3447 6.38648C58.6526 4.38424 61.087 2.28372 63.5597 1.07125C66.0877 -0.168272 68.8018 -0.546709 71.519 1.10299L70.481 2.81257C68.5315 1.62896 66.579 1.81828 64.4403 2.86699C62.2463 3.94275 60.014 5.85091 57.6553 7.8972L56.3447 6.38648ZM71.519 1.10299C72.8213 1.89365 74.0699 3.122 75.2625 4.52745C76.4618 5.94084 77.6512 7.5902 78.8204 9.26803C81.1924 12.6717 83.4555 16.1419 85.7082 18.4017L84.2918 19.8137C81.8779 17.3923 79.4742 13.7042 77.1796 10.4115C76.0155 8.74119 74.8715 7.15787 73.7375 5.82147C72.5968 4.47712 71.5121 3.43855 70.481 2.81257L71.519 1.10299ZM85.7082 18.4017C87.9083 20.6086 90.0394 21.5858 92.1113 21.8179C94.2053 22.0524 96.3541 21.5388 98.5987 20.5555L99.4013 22.3874C96.9792 23.4485 94.4613 24.0936 91.8887 23.8055C89.294 23.5148 86.7584 22.288 84.2918 19.8137L85.7082 18.4017ZM98.5987 20.5555C103.119 18.5751 107.683 14.8514 110.034 12.9292L111.3 14.4775C108.984 16.3711 104.214 20.2789 99.4013 22.3874L98.5987 20.5555ZM110.034 12.9292L112.367 11.0213L113.633 12.5696L111.3 14.4775L110.034 12.9292Z" fill="#008000"/>
</svg>
