<svg width="119" height="46" viewBox="0 0 119 46" fill="none" xmlns="http://www.w3.org/2000/svg">
<path d="M118.333 22.1664C118.333 19.2209 115.946 16.833 113 16.833C110.054 16.833 107.667 19.2209 107.667 22.1664C107.667 25.1119 110.054 27.4997 113 27.4997C115.946 27.4997 118.333 25.1119 118.333 22.1664ZM111.133 20.954L111.678 20.1154L111.133 20.954ZM2.86667 36.3015L3.84441 36.5113L3.84441 36.5113L2.86667 36.3015ZM113.545 21.3277L111.678 20.1154L110.589 21.7927L112.455 23.005L113.545 21.3277ZM111.678 20.1154C110.747 19.5109 109.279 18.5551 107.553 17.8314C105.832 17.1095 103.767 16.5801 101.646 16.9107L101.954 18.8868C103.566 18.6356 105.235 19.0277 106.78 19.6757C108.321 20.322 109.653 21.1848 110.589 21.7927L111.678 20.1154ZM101.646 16.9107C99.5464 17.2379 97.5238 18.3921 95.6403 19.6642C94.6905 20.3057 93.7386 21.0041 92.8153 21.6697C91.8834 22.3414 90.9735 22.9849 90.071 23.5475L91.129 25.2447C92.0932 24.6437 93.05 23.9659 93.9847 23.2921C94.928 22.6122 95.8429 21.9408 96.7597 21.3216C98.6095 20.0722 100.32 19.1414 101.954 18.8868L101.646 16.9107ZM90.071 23.5475C86.5431 25.7466 82.4887 26.9883 78.609 32.0046L80.191 33.2281C83.778 28.5903 87.1902 27.7 91.129 25.2447L90.071 23.5475ZM78.609 32.0046C77.644 33.2522 76.6877 34.7311 75.7573 36.1873C74.8167 37.6595 73.9026 39.1083 72.9914 40.3605C72.0721 41.6238 71.2149 42.602 70.4156 43.1777C69.6348 43.7401 69.0651 43.8175 68.5688 43.6206L67.8312 45.4795C69.2016 46.0233 70.4985 45.5828 71.5844 44.8006C72.6518 44.0319 73.6612 42.8392 74.6086 41.5373C75.5641 40.2242 76.5166 38.7135 77.4427 37.2641C78.3789 35.7988 79.2893 34.394 80.191 33.2281L78.609 32.0046ZM68.5688 43.6206C67.9389 43.3706 67.1501 42.6028 66.2267 41.2461C65.3329 39.933 64.4242 38.2405 63.4935 36.389C61.6682 32.7582 59.7391 28.456 57.8081 25.8066L56.1919 26.9847C57.9942 29.4574 59.7984 33.4917 61.7065 37.2873C62.6424 39.1489 63.6004 40.942 64.5733 42.3714C65.5165 43.7572 66.5944 44.9888 67.8312 45.4795L68.5688 43.6206ZM57.8081 25.8066C55.7928 23.0417 53.7424 21.9954 51.7824 21.1843C49.848 20.3838 48.1978 19.8647 46.5011 18.1963L45.0989 19.6224C47.1355 21.625 49.2187 22.2879 51.0176 23.0323C52.7909 23.7661 54.4738 24.6275 56.1919 26.9847L57.8081 25.8066ZM46.5011 18.1963C44.7393 16.464 42.9483 13.5174 41.0453 10.5066C40.112 9.0301 39.1596 7.5543 38.1994 6.27665C37.2465 5.00867 36.2396 3.87182 35.18 3.1174L34.02 4.74662C34.8271 5.32127 35.6868 6.26228 36.6006 7.47819C37.5071 8.68443 38.4213 10.0986 39.3547 11.5752C41.185 14.4709 43.1274 17.6839 45.0989 19.6224L46.5011 18.1963ZM35.18 3.1174C32.9585 1.53566 30.73 1.77824 28.7936 2.18676C27.7769 2.40125 26.9504 2.63196 26.0408 2.77868C25.1733 2.9186 24.3822 2.9496 23.6234 2.7757L23.1766 4.72517C24.2844 4.97903 25.3601 4.91432 26.3592 4.75316C27.3163 4.59879 28.3564 4.32302 29.2064 4.14369C31.0033 3.76459 32.5082 3.67021 34.02 4.74662L35.18 3.1174ZM23.6234 2.7757C22.8378 2.5957 22.0155 2.18477 21.0697 1.68156C20.1714 1.20364 19.1441 0.631657 18.104 0.299782C17.0332 -0.0418655 15.8429 -0.166988 14.6208 0.333821C13.4171 0.827108 12.3402 1.86367 11.3442 3.51161L13.0558 4.54612C13.9265 3.10556 14.7162 2.45614 15.3792 2.18445C16.0238 1.92029 16.7002 1.95122 17.496 2.20515C18.3225 2.46885 19.1619 2.93198 20.1303 3.44721C21.0512 3.93716 22.0955 4.47743 23.1766 4.72517L23.6234 2.7757ZM11.3442 3.51161C9.39116 6.74298 7.49413 12.7771 5.86624 18.9652C4.22623 25.1993 2.82175 31.7448 1.88893 36.0916L3.84441 36.5113C4.77826 32.1596 6.17378 25.6573 7.80043 19.474C9.43921 13.2446 11.2755 7.49175 13.0558 4.54612L11.3442 3.51161ZM1.88893 36.0916L0.0222626 44.7902L1.97775 45.2098L3.84441 36.5113L1.88893 36.0916Z" fill="#0CA637"/>
</svg>
