<svg width="141" height="33" viewBox="0 0 141 33" fill="none" xmlns="http://www.w3.org/2000/svg">
<path d="M1 32L3.31667 31.7904C5.63333 31.5809 10.2667 31.1617 14.9 25.87C19.5333 20.5783 24.1667 10.414 28.8 6.5736C33.4333 2.73316 38.0667 5.21657 42.7 7.69174C47.3333 10.1669 51.9667 12.6339 56.6 15.2903C61.2333 17.9468 65.8667 20.7928 70.5 20.8016C75.1333 20.8105 79.7667 17.9821 84.4 13.2823C89.0333 8.58244 93.6667 2.01113 98.3 1.112C102.933 0.212879 107.567 4.98594 112.2 6.19546C116.833 7.40498 121.467 5.05097 126.1 7.17893C130.733 9.3069 135.367 15.9169 137.683 19.2218L140 22.5268" stroke="#E2435E"/>
</svg>
